<svg id="Calque_1" data-name="Calque 1" xmlns="http://www.w3.org/2000/svg" viewBox="0 0 24 24"><polygon points="17 21 7 21 8 19 16 19 17 21"/><path d="M15.22,12.39,17,10.73,13,7V9.13a6.66,6.66,0,0,0-.85.19Z"/><polygon points="13 13 13 14.47 13.76 13.76 13 13"/><path d="M10.14,10.14A7.17,7.17,0,0,0,7,15a6.52,6.52,0,0,1,5.31-2.69Z"/><path d="M8.83,6H20V16H18.83l1.87,1.87A2,2,0,0,0,22,16V6a2,2,0,0,0-2-2H6.83Z"/><path d="M16,16H4V6H6L4,4H4A2,2,0,0,0,2,6V16a2,2,0,0,0,2,2H18Z"/><rect x="10.79" y="-0.79" width="1" height="27" transform="translate(-5.68 11.71) rotate(-45)" style="fill:#f3483f"/><polygon points="2.1 2.1 0.69 3.52 20.48 23.31 21.9 21.9 2.1 2.1 2.1 2.1"/></svg>