<svg id="Calque_1" data-name="Calque 1" xmlns="http://www.w3.org/2000/svg" viewBox="0 0 24 24"><defs><style>.cls-1{fill:none;}</style></defs><path d="M13,11H11v6.17L7.76,13.93,6.34,15.34,12,21l5.66-5.66-1.42-1.41L13,17.17V11Z"/><path class="cls-1" d="M4.29,4.16h24v24h-24Z"/><path d="M18.59,9.52a14.8,14.8,0,0,1,3,1.91L20.48,12.5a13.75,13.75,0,0,0-1.88-1.27V9.52m-13.2,0v1.7a13.68,13.68,0,0,0-1.87,1.27L2.46,11.42A15.54,15.54,0,0,1,5.4,9.52M12,6A17,17,0,0,0,.29,10.67a1,1,0,0,0-.29.71,1,1,0,0,0,.29.7l2.48,2.48a1,1,0,0,0,.71.29,1,1,0,0,0,.7-.28,11.51,11.51,0,0,1,2.66-1.85,1,1,0,0,0,.56-.9V8.72A14.91,14.91,0,0,1,12,8a14.52,14.52,0,0,1,4.59.73v3.1a1,1,0,0,0,.56.9,11.27,11.27,0,0,1,2.67,1.85,1,1,0,0,0,.7.28,1,1,0,0,0,.71-.29l2.48-2.48a1,1,0,0,0,0-1.42A17,17,0,0,0,12,6Z"/></svg>